<svg width="30" height="31" viewBox="0 0 30 31" fill="none" xmlns="http://www.w3.org/2000/svg">
<g clip-path="url(#clip0_6_1801)">
<path d="M8.59127 12.9688C8.44127 12.9688 8.30627 12.8713 8.26314 12.7194C8.21252 12.5394 8.31752 12.35 8.49939 12.3013C9.76502 11.9488 11.0531 10.9419 11.0663 9.70063C11.07 9.30501 10.9688 8.91126 10.8638 8.49313C10.7981 8.24001 10.7325 7.97938 10.6875 7.71313C10.5656 6.96501 10.4194 5.10688 11.6888 3.99313C11.9906 3.72876 12.6038 3.24688 13.3219 2.99751C13.4981 2.93751 13.6931 3.02938 13.755 3.20751C13.8169 3.38563 13.7231 3.57876 13.545 3.64063C13.1006 3.79438 12.5869 4.10938 12.1388 4.50501C11.1244 5.39563 11.2556 6.96876 11.3606 7.60438C11.3981 7.84063 11.4581 8.07501 11.5219 8.32438C11.6363 8.76501 11.7525 9.22251 11.7469 9.70813C11.7281 11.36 10.1456 12.5506 8.68314 12.9575C8.65314 12.965 8.62127 12.9688 8.59127 12.9688Z" fill="#78A3AD"/>
<path d="M21.285 1.27065C20.4469 0.792529 19.5731 0.545029 18.69 0.535654C15.5381 0.503779 13.1869 2.90753 13.1025 3.02378C12.9694 3.20378 13.0069 3.4569 13.1869 3.5919C13.3669 3.7269 13.62 3.69315 13.7569 3.51503C13.7756 3.49065 15.9712 1.52753 18.5475 1.55378C19.2994 1.56128 20.0419 1.79378 20.7525 2.24565C21.2606 2.56815 21.5944 3.0819 21.7856 3.6444C22.0256 4.3419 22.0706 5.09565 22.0519 5.8269C22.0275 6.75128 21.8869 7.67003 21.7012 8.57378C21.4875 9.61815 21.2044 10.6475 20.8875 11.6657C20.0662 14.2963 19.1062 16.8519 17.9119 19.3363C17.6306 19.9213 17.3531 20.5082 17.0812 21.0969C16.7981 21.7138 15.8625 23.0994 16.6387 23.6732C17.2725 24.1438 18.0169 23.6057 18.3862 23.0863C18.7987 22.5107 19.0087 21.8188 19.2412 21.1588C19.4869 20.4632 19.7869 19.7863 20.0456 19.0925C20.1937 18.6913 20.3381 18.2882 20.4769 17.885C20.865 16.7544 21.1969 15.6069 21.5794 14.4763C21.8981 13.535 22.1906 12.5844 22.4419 11.6225C22.6875 10.6925 22.8975 9.75128 23.0475 8.80253C23.1862 7.93065 23.2781 7.0494 23.2781 6.16628C23.28 5.39378 23.2144 4.61565 23.0156 3.86565C22.8431 3.21315 22.5656 2.58128 22.14 2.0544C21.898 1.74982 21.6094 1.48532 21.285 1.27065Z" fill="#2F2F2F"/>
<path d="M18.7894 22.9644C20.4675 19.085 21.3619 15.7025 21.3994 15.5113C21.4387 15.3106 21.5456 14.5888 20.7169 14.3338C19.8881 14.0788 19.6537 14.5419 19.6537 14.5419C19.6537 14.5419 17.5762 20.2588 16.3181 22.4881C16.2619 22.5894 16.0631 23.1069 16.1981 23.5569C16.2787 23.8269 16.5787 24.0931 17.0025 24.2075C17.5744 24.3613 18.0094 24.1831 18.2025 23.9506C18.5719 23.5044 18.7162 23.1331 18.7894 22.9644Z" fill="#4BB789"/>
<path d="M17.4713 20.0694C17.4713 20.0694 17.7881 19.9344 18.03 19.4619C18.2719 18.9894 18.6113 18.1512 19.2169 17.8662L19.6913 16.1525L19.3275 16.0756C19.3275 16.0756 18.4331 17.0037 17.7319 18.3631L17.4713 20.0694Z" fill="#2F2F2F"/>
<path d="M13.1175 19.9906C13.2131 19.9025 13.2844 19.7806 13.3162 19.6194C13.4325 19.0456 13.0369 18.8844 12.585 18.7025C12.1744 18.5375 11.6569 18.4306 11.3419 18.8319C11.0381 19.22 11.0962 19.9062 11.6212 20.0675C12.0412 20.195 12.7594 20.3225 13.1175 19.9906Z" fill="#4BB789"/>
<path d="M13.4006 19.9212C13.3072 20.0262 13.1888 20.1056 13.0562 20.1522C12.9237 20.1988 12.7816 20.2109 12.6431 20.1875C12.6431 20.1875 12.4162 20.0562 12.4762 19.5875C12.5212 19.2181 12.765 18.9256 13.0706 18.9387C13.0706 18.9387 13.32 19.0062 13.7475 18.8056C13.9912 18.6894 15.03 18.1475 15.4744 17.4931L15.585 18.755C15.585 18.755 13.8075 19.4637 13.4006 19.9212Z" fill="#2F2F2F"/>
<path d="M15.6563 16.4507C15.9 15.905 16.7363 15.7475 17.5238 16.1C18.3132 16.4525 18.75 17.18 18.5063 17.7257C18.2625 18.2732 17.4263 18.4288 16.6388 18.0763C15.8513 17.7238 15.4107 16.9963 15.6563 16.4507Z" fill="#78A3AD"/>
<path d="M17.565 19.8125L18.5062 17.7256L16.6144 16.3306L15.6562 16.4506L14.6569 18.7381L17.565 19.8125Z" fill="#78A3AD"/>
<path d="M17.5332 20.06C17.2913 20.6394 16.4175 20.8269 15.5832 20.48C14.745 20.1313 14.2632 19.3775 14.505 18.8C14.7488 18.2188 15.6207 18.0313 16.455 18.38C17.2932 18.7269 17.775 19.4806 17.5332 20.06Z" fill="#2F2F2F"/>
<path d="M17.8238 19.4375C17.5819 20.0169 16.7082 20.2044 15.8738 19.8575C15.0375 19.5088 14.5557 18.7569 14.7957 18.1775C15.0375 17.5963 15.9113 17.4088 16.7494 17.7575C17.5838 18.1044 18.0657 18.8581 17.8238 19.4375Z" fill="#2F2F2F"/>
<path d="M14.7956 18.1757L14.505 18.8L16.5319 20.2138L17.5331 20.06L17.8238 19.4375L14.7956 18.1757ZM16.4081 21.6725C16.245 22.0644 15.6563 22.19 15.0919 21.9557C14.5275 21.7194 14.2031 21.2132 14.3663 20.8213C14.5294 20.4294 15.1181 20.3038 15.6825 20.5382C16.2469 20.7744 16.5713 21.2807 16.4081 21.6725Z" fill="#2F2F2F"/>
<path d="M17.0351 20.1775C17.1979 19.7865 16.8726 19.2792 16.3085 19.0444C15.7445 18.8096 15.1553 18.9363 14.9925 19.3273C14.8298 19.7183 15.1551 20.2256 15.7191 20.4604C16.2832 20.6952 16.8724 20.5686 17.0351 20.1775Z" fill="#2F2F2F"/>
<path d="M14.9925 19.3269L14.3663 20.8213L15.7331 21.7757L16.4081 21.6725L17.0738 20.0338L14.9925 19.3269Z" fill="#2F2F2F"/>
<path d="M19.1962 16.2762C19.1962 16.2762 19.395 15.7212 19.8187 15.8975C19.9706 15.9594 19.995 16.1487 19.9612 16.3644C19.9012 16.7525 19.5169 17.8794 19.2806 18.185C19.2375 18.2394 19.0706 18.3594 18.9244 18.3781C18.7762 18.3969 18.6506 18.3144 18.6169 18.29C18.4837 18.1906 18.5475 18.0031 18.5475 18.0031L19.1962 16.2762Z" fill="#2F2F2F"/>
<path d="M13.8862 12.5862C13.8937 12.5843 13.8994 12.5825 13.905 12.5806C14.7712 12.3462 14.8669 11.1012 13.9669 10.8293C13.9444 10.8218 13.92 10.8162 13.8956 10.8106C13.3575 10.6906 12.8325 10.9475 12.4725 11.3375C12.2887 11.5381 12.1125 11.7462 11.9475 11.9637C11.8669 12.0687 11.7769 12.1756 11.7094 12.29C11.67 12.3556 11.6494 12.4962 11.715 12.5506C11.8162 12.635 12.0675 12.6368 12.1931 12.6537C12.7537 12.725 13.335 12.7362 13.8862 12.5862ZM4.78124 9.7381C4.77749 9.73247 4.77374 9.7306 4.76812 9.72685C4.24124 9.20747 3.31312 9.6556 3.49124 10.4112L3.50812 10.4712C3.64499 10.9043 4.04437 11.1743 4.47374 11.2681C4.69312 11.3168 4.91437 11.3562 5.13937 11.3843C5.24812 11.3975 5.36249 11.4181 5.47312 11.42C5.53499 11.42 5.64374 11.3787 5.65312 11.3075C5.66999 11.2006 5.57062 11.0206 5.52937 10.925C5.34937 10.4881 5.11687 10.07 4.78124 9.7381ZM7.80749 8.22497V8.20435C7.84874 7.3081 6.69374 6.83747 6.15749 7.60997L6.11812 7.67185C5.84062 8.14622 5.92312 8.7256 6.18187 9.18685C6.31665 9.42414 6.46244 9.65502 6.61874 9.87872C6.69562 9.98747 6.76874 10.1056 6.85874 10.2068C6.90937 10.2631 7.03499 10.3268 7.10812 10.28C7.21874 10.2087 7.29749 9.97247 7.35187 9.8581C7.59187 9.34435 7.77937 8.79497 7.80749 8.22497Z" fill="#40C0E7"/>
<path d="M10.0463 23.6937C9.71628 23.12 8.81065 23.4968 8.50878 22.9512C8.3419 22.6493 8.78065 21.7737 8.29128 21.6912C7.69503 21.5881 7.24878 22.3775 6.7369 22.5743C6.6919 22.5912 6.62815 22.6043 6.55878 22.6156C6.55128 22.6006 6.54378 22.5912 6.53628 22.5762C6.37128 22.1956 6.43878 21.7512 6.55128 21.365C6.56628 21.3106 6.58315 21.2562 6.6019 21.2018C6.75378 20.7556 6.97878 20.3393 7.23003 19.9437C7.35378 19.7487 7.49253 19.5631 7.61253 19.3681C7.64628 19.3156 7.6894 19.2368 7.74003 19.2031C7.80003 19.1637 7.8844 19.16 7.9519 19.1431C8.27628 19.0643 8.59503 18.9593 8.91378 18.86C9.3544 18.7212 9.06378 17.7893 8.89315 17.3656C8.93253 17.2868 8.9719 17.21 9.0019 17.12C9.0769 16.8856 9.1744 16.6568 9.2269 16.4168C9.31315 16.0193 9.42003 15.6237 9.4594 15.2206C9.55315 14.7893 9.5569 14.3281 9.55315 13.8912C9.54565 12.77 9.2269 12.2431 8.08503 12.1681C7.82065 12.1512 7.5694 12.1587 7.30878 12.1943C6.15003 12.35 5.09253 12.9068 4.23003 13.6831C3.73503 14.1312 3.2944 14.6206 2.9269 15.1793C2.88003 15.2525 2.83503 15.3312 2.79003 15.4081C2.64753 15.41 2.50878 15.4193 2.3869 15.4362C2.33628 15.4437 2.28565 15.4475 2.24065 15.4493C2.0194 15.4587 1.8319 15.44 1.6444 15.6256C1.49065 15.7775 1.44003 15.9706 1.3594 16.1656C1.07253 16.8743 0.841903 17.585 0.750028 18.3481C0.723778 18.5581 0.716278 18.7643 0.727528 18.9725C0.738778 19.2293 0.693778 19.4975 0.748153 19.7543C0.789403 19.9568 0.851278 20.1575 0.898153 20.3543C0.920653 20.45 0.954403 20.6262 1.04253 20.6918C1.1644 20.7837 1.40065 20.7237 1.5394 20.6937C1.63315 20.6712 1.7644 20.6618 1.90128 20.6431C1.98003 21.2 2.1169 21.7343 2.32315 22.22C2.99065 23.7893 4.61253 24.4812 6.2194 24.4306C6.4519 24.4587 6.6919 24.47 6.91315 24.4662C7.1869 24.4587 10.2957 24.1287 10.0463 23.6937ZM6.8569 13.25C7.14378 13.235 7.50003 13.5312 7.39503 13.8293C7.30878 14.0731 7.07815 14.3243 6.79315 14.2906L6.79128 14.2887C6.59253 14.2587 6.36378 14.0618 6.3544 13.85C6.34315 13.5818 6.57565 13.2668 6.8569 13.25Z" fill="#4BB789"/>
</g>
<defs>
<clipPath id="clip0_6_1801">
<rect width="30" height="30" fill="white" transform="translate(0 0.5)"/>
</clipPath>
</defs>
</svg>
