<svg
    xmlns="http://www.w3.org/2000/svg"
    width="18"
    height="19"
    viewBox="0 0 18 19"
    fill="none"
  >
  <path
    d="M0.84375 3.875H17.1562C17.38 3.875 17.5946 3.96389 17.7529 4.12213C17.9111 4.28036 18 4.49497 18 4.71875C18 4.94253 17.9111 5.15714 17.7529 5.31537C17.5946 5.47361 17.38 5.5625 17.1562 5.5625H0.84375C0.619974 5.5625 0.405362 5.47361 0.247129 5.31537C0.0888948 5.15714 0 4.94253 0 4.71875C0 4.49497 0.0888948 4.28036 0.247129 4.12213C0.405362 3.96389 0.619974 3.875 0.84375 3.875ZM3.375 9.21875C3.375 8.99497 3.46389 8.78036 3.62213 8.62213C3.78036 8.46389 3.99497 8.375 4.21875 8.375H13.7812C14.005 8.375 14.2196 8.46389 14.3779 8.62213C14.5361 8.78036 14.625 8.99497 14.625 9.21875C14.625 9.44253 14.5361 9.65714 14.3779 9.81537C14.2196 9.9736 14.005 10.0625 13.7812 10.0625H4.21875C3.99497 10.0625 3.78036 9.9736 3.62213 9.81537C3.46389 9.65714 3.375 9.44253 3.375 9.21875ZM6.75 13.7188C6.75 13.495 6.83889 13.2804 6.99713 13.1221C7.15536 12.9639 7.36997 12.875 7.59375 12.875H10.4062C10.63 12.875 10.8446 12.9639 11.0029 13.1221C11.1611 13.2804 11.25 13.495 11.25 13.7188C11.25 13.9425 11.1611 14.1571 11.0029 14.3154C10.8446 14.4736 10.63 14.5625 10.4062 14.5625H7.59375C7.36997 14.5625 7.15536 14.4736 6.99713 14.3154C6.83889 14.1571 6.75 13.9425 6.75 13.7188Z"
    fill="black"
  />
</svg>