<svg width="14" height="13" viewBox="0 0 14 13" fill="none" xmlns="http://www.w3.org/2000/svg">
<g clip-path="url(#clip0_4_1244)">
<path d="M13.4805 2.75391C13.1159 2.4987 12.7422 2.48047 12.3594 2.69922C11.6302 3.00911 11.0286 3.54688 10.5547 4.3125C10.0443 3.32812 9.2513 2.6263 8.17578 2.20703V1.27734C8.17578 0.967448 8.03906 0.657552 7.76562 0.347656C7.47396 0.147135 7.13672 0.0742188 6.75391 0.128906C5.73307 0.347656 5.05859 0.949219 4.73047 1.93359C3.41797 2.20703 2.30143 2.75391 1.38086 3.57422C0.460286 4.39453 0 5.36068 0 6.47266C0 7.78516 0.638021 8.89258 1.91406 9.79492C3.1901 10.6973 4.59375 11.1484 6.125 11.1484C7.14583 11.1484 8.04362 10.9297 8.81836 10.4922C9.5931 10.0547 10.1719 9.45312 10.5547 8.6875C11.0286 9.45312 11.6302 10 12.3594 10.3281C12.6146 10.401 12.7695 10.4375 12.8242 10.4375C13.0612 10.4375 13.2799 10.3828 13.4805 10.2734C13.8268 10.0365 14 9.70833 14 9.28906V3.68359C14 3.22786 13.8268 2.91797 13.4805 2.75391ZM6.125 1.82422C6.21615 1.60547 6.50781 1.42318 7 1.27734V1.82422H6.125ZM1.17578 6.47266C1.17578 5.92578 1.37174 5.40625 1.76367 4.91406C2.1556 4.42188 2.67969 4.01172 3.33594 3.68359C3.82812 4.28516 4.07422 5.21484 4.07422 6.47266C4.07422 7.73047 3.82812 8.66927 3.33594 9.28906C2.67969 8.96094 2.1556 8.54622 1.76367 8.04492C1.37174 7.54362 1.17578 7.01953 1.17578 6.47266ZM6.125 9.97266C5.6875 9.97266 5.1224 9.89974 4.42969 9.75391C4.97656 8.82422 5.25 7.73047 5.25 6.47266C5.25 5.23307 4.97656 4.14844 4.42969 3.21875C4.86719 3.05469 5.43229 2.97266 6.125 2.97266C7.25521 2.97266 8.17122 3.29167 8.87305 3.92969C9.57487 4.56771 9.92578 5.41536 9.92578 6.47266C9.92578 7.52995 9.57487 8.3776 8.87305 9.01562C8.17122 9.65365 7.25521 9.97266 6.125 9.97266ZM12.8242 9.45312C11.6576 8.6875 11.0742 7.73047 11.0742 6.58203C11.0742 5.98047 11.252 5.40169 11.6074 4.8457C11.9629 4.28971 12.3685 3.92057 12.8242 3.73828V9.45312ZM3.5 5.89844C3.5 6.0625 3.44076 6.19922 3.32227 6.30859C3.20378 6.41797 3.07161 6.47266 2.92578 6.47266C2.76172 6.47266 2.62044 6.41797 2.50195 6.30859C2.38346 6.19922 2.32422 6.0625 2.32422 5.89844C2.32422 5.73438 2.38346 5.59766 2.50195 5.48828C2.62044 5.37891 2.76172 5.32422 2.92578 5.32422C3.07161 5.32422 3.20378 5.37891 3.32227 5.48828C3.44076 5.59766 3.5 5.73438 3.5 5.89844Z" fill="black"/>
</g>
<defs>
<clipPath id="clip0_4_1244">
<rect width="14" height="12.9062" fill="white" transform="translate(0 0.046875)"/>
</clipPath>
</defs>
</svg>
