<svg width="11" height="13" viewBox="0 0 11 13" fill="none" xmlns="http://www.w3.org/2000/svg">
<path d="M1.29125 0.0437622C1.29125 0.374968 1.60761 0.689387 1.93688 0.689387H8.39313C8.72433 0.689387 9.03875 0.373031 9.03875 0.0437622H10.33C10.33 0.557453 10.1259 1.05011 9.7627 1.41334C9.39947 1.77657 8.90682 1.98064 8.39313 1.98064H5.81063L5.81127 3.31192C7.05934 3.46946 8.20703 4.07702 9.03899 5.0206C9.87095 5.96417 10.33 7.17891 10.33 8.43689V12.3106C10.33 12.4819 10.262 12.6461 10.1409 12.7672C10.0198 12.8882 9.85561 12.9563 9.68438 12.9563H0.645625C0.474395 12.9563 0.310177 12.8882 0.189099 12.7672C0.068021 12.6461 0 12.4819 0 12.3106V8.43689C2.13533e-05 7.17882 0.45916 5.96399 1.29125 5.0204C2.12334 4.07681 3.27119 3.46931 4.51938 3.31192V1.98064H1.93688C0.865138 1.98064 0 1.1155 0 0.0437622H1.29125ZM5.165 4.56314C3.07447 4.56314 1.29125 6.34506 1.29125 8.43689V11.665H9.03875V8.43689C9.03875 6.34635 7.25553 4.56314 5.165 4.56314ZM5.165 5.85439C5.64405 5.85439 6.09276 5.9848 6.47691 6.21206L4.7079 7.98043C4.59211 8.09662 4.52488 8.25252 4.51987 8.41647C4.51487 8.58043 4.57246 8.74015 4.68094 8.86318C4.78943 8.98621 4.94068 9.06334 5.10397 9.0789C5.26727 9.09445 5.43036 9.04727 5.56012 8.94693L5.62146 8.89334L7.39047 7.12498C7.67976 7.6155 7.79881 8.18789 7.72908 8.75308C7.65936 9.31828 7.40477 9.84457 7.00494 10.2501C6.6051 10.6556 6.08245 10.9176 5.51829 10.9952C4.95414 11.0729 4.38013 10.962 3.88558 10.6796C3.39103 10.3973 3.00367 9.95935 2.78379 9.43403C2.5639 8.90872 2.52382 8.32546 2.66977 7.775C2.81573 7.22455 3.13954 6.73777 3.59081 6.39041C4.04209 6.04306 4.59552 5.85461 5.165 5.85439Z" fill="#8F8F8F"/>
</svg>
